<?xml version="1.0" encoding="utf-8"?>
<!-- Generator: Adobe Illustrator 14.0.0, SVG Export Plug-In . SVG Version: 6.00 Build 43363)  -->
<!DOCTYPE svg PUBLIC "-//W3C//DTD SVG 1.1//EN" "http://www.w3.org/Graphics/SVG/1.1/DTD/svg11.dtd">
<svg fill="#FFFFFF" version="1.1" id="Layer_1" xmlns="http://www.w3.org/2000/svg" xmlns:xlink="http://www.w3.org/1999/xlink" x="0px" y="0px" viewBox="0 0 216 216" xml:space="preserve">
<path d="M191.831,129.699h7.767c6.943,0,12.623-5.608,12.623-12.593V71.345c0-6.927-5.68-12.652-12.623-12.652
	h-7.767v-7.709c0-10.594-6.437-20.145-16.291-24.058V13.158c0-5.985-4.927-10.957-10.941-10.957c-6.044,0-10.943,4.87-11.028,10.957
	l0,0v11.869H62.324V13.158c0-5.985-4.984-10.957-11.051-10.957c-5.992,0-10.942,4.972-10.942,10.957l0,0v13.551
	c-10.065,3.87-16.724,13.535-16.724,24.275v23.912c0,5.304,3.711,9.812,8.906,10.797c1.151,8.391,7.817,16.783,16.166,17.826v12.297
	c0,1.582,1.334,2.87,2.869,2.87c1.579,0,2.848-1.288,2.848-2.87v-12.413c8.203-1.291,14.594-9.522,15.754-17.71
	c5.188-0.985,8.898-5.493,8.898-10.797c0-6.623,5.449-12.101,12.101-12.101h24.972c11.187,0,20.275,9.043,20.275,20.274v61.92
	H36.644c-6.94,0-12.622,5.724-12.622,12.666v27.405H13.789c-6.565,0-11.964,7.131-11.964,13.768c0,6.639,5.362,13.711,11.964,13.711
	l0,0h188.3c6.566,0,11.987-7.072,11.987-13.711c0-6.637-5.347-13.768-11.987-13.768l0,0h-10.258V129.699z M196.018,68.041
	c3.857,0,6.913,3.116,6.913,6.913v38.571c0,3.783-3.056,6.928-6.913,6.928h-4.187V68.041H196.018z M161.119,16.766
	c0-2.913,0.565-5.232,3.436-5.232c2.912,0,3.507,2.319,3.507,5.232v8.261h-6.942V16.766z M47.854,25.027v-8.261
	c0-2.913,0.578-5.232,3.419-5.232c2.95,0,3.508,2.319,3.508,5.232v8.261H47.854z M51.622,96.156h-0.595
	c-5.645,0-8.246-4.435-9.122-8.42h18.84C59.833,91.809,57.311,96.156,51.622,96.156L51.622,96.156z M119.744,53.476H87.569
	c-9.825,0-17.811,8.058-17.811,17.87c0,2.985-2.391,5.347-5.289,5.347H38.195c-2.913,0-5.298-2.362-5.298-5.347V54.563
	c0-11.145,9.08-20.202,20.275-20.261h109.106c11.218,0.059,20.275,9.116,20.275,20.261v90.427h-36.869V79.461
	C145.686,65.127,134.091,53.476,119.744,53.476z M204.714,198.828c0,3.449-2.797,4.493-6.218,4.493H17.384
	c-3.393,0-6.254-1.044-6.254-4.493c0-3.479,2.812-4.477,6.254-4.477l0,0h181.112C201.917,194.352,204.714,195.35,204.714,198.828z
	 M33.355,185.061V161.25c0-3.855,3.05-6.914,6.912-6.941h142.287v30.752H33.355z"/>
</svg>
