<?xml version="1.0" encoding="utf-8"?>
<!-- Generator: Adobe Illustrator 14.0.0, SVG Export Plug-In . SVG Version: 6.00 Build 43363)  -->
<!DOCTYPE svg PUBLIC "-//W3C//DTD SVG 1.1//EN" "http://www.w3.org/Graphics/SVG/1.1/DTD/svg11.dtd">
<svg fill="#FFFFFF" version="1.1" id="Layer_1" xmlns="http://www.w3.org/2000/svg" xmlns:xlink="http://www.w3.org/1999/xlink" x="0px" y="0px" viewBox="0 0 216 216" xml:space="preserve">
		<path d="M33.234,127.332c-8.459,3.523-12.512,13.25-8.975,21.715c2.625,6.418,8.848,10.264,15.365,10.264
			c2.104,0,4.246-0.416,6.316-1.26c8.48-3.523,12.518-13.262,9.016-21.715C51.439,127.855,41.701,123.811,33.234,127.332z
			 M42.765,150.361c-4.213,1.754-9.088-0.256-10.857-4.515c-1.754-4.221,0.254-9.084,4.508-10.852
			c1.031-0.416,2.109-0.604,3.176-0.604c3.254,0,6.35,1.916,7.682,5.104C49.021,143.73,47,148.605,42.765,150.361L42.765,150.361z"
			/>
		<path d="M24.259,100.623c1.682,4.125,4.875,7.301,8.975,9.032c2.076,0.841,4.232,1.255,6.357,1.255
			c6.518,0,12.713-3.857,15.365-10.287c3.502-8.454-0.516-18.18-8.996-21.677c-4.1-1.714-8.607-1.714-12.727,0
			c-4.1,1.688-7.293,4.863-8.975,8.976C22.537,92.021,22.537,96.548,24.259,100.623L24.259,100.623z M31.922,91.109
			c0.863-2.05,2.445-3.658,4.494-4.501c1.031-0.442,2.109-0.643,3.189-0.643c1.059,0,2.162,0.201,3.16,0.643
			c4.246,1.755,6.256,6.631,4.508,10.851c-1.748,4.247-6.609,6.243-10.857,4.515c-2.049-0.857-3.631-2.438-4.494-4.515
			C31.064,95.411,31.064,93.146,31.922,91.109z"/>
		<path d="M67.474,75.41c2.051,0.844,4.201,1.286,6.352,1.286c2.143,0,4.307-0.441,6.355-1.286
			c4.113-1.688,7.295-4.876,9.01-8.99c1.688-4.085,1.688-8.613,0-12.712c-1.715-4.1-4.896-7.288-9.01-9.003
			c-4.086-1.701-8.594-1.701-12.707,0c-4.105,1.715-7.293,4.903-9.002,9.003c-1.701,4.099-1.701,8.627,0,12.712
			C60.181,70.533,63.369,73.721,67.474,75.41z M66.136,56.881c0.863-2.05,2.471-3.644,4.514-4.488
			c1.025-0.429,2.104-0.643,3.176-0.643c1.064,0,2.143,0.214,3.174,0.643c2.063,0.844,3.67,2.438,4.508,4.488
			c0.838,2.063,0.838,4.3,0,6.376c-0.838,2.037-2.445,3.617-4.508,4.461c-2.043,0.884-4.313,0.884-6.35,0
			c-2.043-0.844-3.65-2.424-4.514-4.461C65.298,61.183,65.298,58.944,66.136,56.881L66.136,56.881z"/>
		<path d="M67.435,192.266c2.109,0.857,4.24,1.285,6.357,1.285c6.516,0,12.738-3.885,15.365-10.289
			c1.721-4.072,1.721-8.6,0-12.699c-1.682-4.127-4.877-7.287-8.977-9.016c-4.119-1.688-8.627-1.688-12.746,0
			c-4.08,1.729-7.275,4.889-8.977,9.016C54.957,179.016,58.974,188.77,67.435,192.266L67.435,192.266z M66.136,173.738
			c0.85-2.037,2.432-3.646,4.494-4.502c1.018-0.414,2.109-0.615,3.182-0.615c1.078,0,2.156,0.201,3.174,0.615
			c2.064,0.856,3.645,2.465,4.508,4.502c0.852,2.035,0.852,4.313,0,6.363c-1.768,4.245-6.631,6.241-10.863,4.475
			C66.404,182.82,64.394,177.945,66.136,173.738L66.136,173.738z"/>
		<path d="M115.875,192.266c2.043,0.857,4.186,1.285,6.336,1.285c2.164,0,4.314-0.428,6.363-1.285
			c4.113-1.701,7.268-4.877,8.996-9.004c1.701-4.072,1.701-8.6,0-12.699c-1.729-4.11-4.883-7.287-8.996-8.99
			c-4.105-1.713-8.613-1.713-12.699,0c-8.491,3.513-12.51,13.236-9.008,21.689C108.574,187.389,111.762,190.564,115.875,192.266z
			 M119.037,169.25c1.023-0.428,2.109-0.629,3.174-0.629c1.092,0,2.164,0.201,3.203,0.629c2.043,0.844,3.643,2.451,4.475,4.488
			c0.869,2.035,0.869,4.313,0,6.363c-0.832,2.049-2.432,3.657-4.475,4.487c-2.051,0.869-4.336,0.869-6.357,0
			c-2.076-0.83-3.664-2.438-4.526-4.487C112.801,175.881,114.809,170.979,119.037,169.25L119.037,169.25z"/>
		<path d="M156.434,159.311c6.516,0,12.705-3.846,15.356-10.248c1.688-4.1,1.688-8.615,0-12.715
			c-1.674-4.111-4.875-7.313-8.969-9.002c-8.474-3.496-18.228,0.51-21.724,9.002c-3.516,8.453,0.523,18.191,8.982,21.703
			C152.158,158.922,154.309,159.311,156.434,159.311z M148.783,139.51c1.734-4.221,6.617-6.23,10.846-4.502
			c4.232,1.77,6.24,6.633,4.486,10.852c-1.748,4.246-6.611,6.271-10.857,4.502C149.045,148.605,147.016,143.742,148.783,139.51
			L148.783,139.51z"/>
		<path d="M49.511,46.165c16.824-11.052,37.154-15.942,57.287-13.772c9.86,1.072,13.378,3.31,14.621,4.97
			c1.402,1.929,0.974,4.809,0.065,9.324c-0.514,2.599-1.043,5.292-1.043,8.105c0.039,5.64,1.271,11.28,3.523,16.438l-25.78,24.208
			c-18.789,5.425-19.219,16.609-19.533,25.611c-0.227,6.096-0.414,11.334-5.104,16.023c-0.932,0.91-1.346,2.211-1.186,3.481
			c0.16,1.287,0.932,2.425,2.043,3.068c3.309,1.889,7.557,2.813,12.123,2.813c6.418,0,13.523-1.81,19.615-5.347
			c9.339-5.371,14.725-13.584,15.294-23.176l23.824-25.397c5.166,2.277,10.799,3.509,16.459,3.536c2.799,0,5.512-0.509,8.111-1.044
			c4.5-0.898,7.381-1.313,9.311,0.08c1.674,1.233,3.898,4.77,4.957,14.608c2.865,26.424-6.283,52.361-25.039,71.143
			c-34.014,34.014-89.373,34.014-123.398,0C6.553,151.699,1.803,105.631,24.383,71.283C31.908,59.414,39.851,52.487,49.511,46.165z
			 M17.453,66.714C5.551,84.813,0.152,106.715,2.242,128.391c2.137,21.971,11.916,42.668,27.557,58.315
			c18.059,18.057,42.051,27.998,67.564,27.998c25.512,0,49.504-9.941,67.563-27.998c20.557-20.554,30.576-48.965,27.43-77.896
			c-1.139-10.616-3.791-17.1-8.293-20.422c-5.01-3.684-10.771-2.545-15.86-1.526c-2.306,0.468-4.476,0.896-6.424,0.871
			c-3.523,0-7.048-0.603-10.367-1.729l59.715-63.593c4.58-4.863,4.556-12.325-0.067-16.959l0,0
			c-4.636-4.622-12.099-4.676-16.947-0.094l-63.615,59.735c-1.111-3.309-1.715-6.832-1.715-10.369
			c-0.033-1.942,0.389-4.113,0.859-6.417c1.018-5.091,2.137-10.852-1.521-15.849c-3.33-4.528-9.813-7.167-20.405-8.332
			c-22.061-2.371-44.346,2.987-62.771,15.111C34.433,46.003,25.33,53.88,17.453,66.714z M101.998,133.896
			c-6.389,3.685-13.504,4.771-18.676,4.006c3.209-5.627,3.438-11.532,3.631-16.53c0.295-8.187,0.523-13.797,12.133-17.535
			l14.035,14.051C112.377,126.609,105.918,131.633,101.998,133.896L101.998,133.896z M205.082,16.718l-87.842,93.549l-10.992-11.001
			l93.53-87.84c1.594-1.5,3.95-1.527,5.385-0.107C206.596,12.768,206.57,15.139,205.082,16.718z"/>
</svg>
