<?xml version="1.0" encoding="utf-8"?>
<!-- Generator: Adobe Illustrator 14.0.0, SVG Export Plug-In . SVG Version: 6.00 Build 43363)  -->
<!DOCTYPE svg PUBLIC "-//W3C//DTD SVG 1.1//EN" "http://www.w3.org/Graphics/SVG/1.1/DTD/svg11.dtd">
<svg version="1.1" id="Layer_1" xmlns="http://www.w3.org/2000/svg" xmlns:xlink="http://www.w3.org/1999/xlink" x="0px" y="0px" viewBox="0 0 669 131" xml:space="preserve">
	<path fill="#DC6658" d="M288.098,115.406c-27.24,0-49.396-22.16-49.396-49.406c0-27.234,22.156-49.4,49.396-49.4
			c27.236,0,49.403,22.166,49.403,49.4C337.5,93.246,315.334,115.406,288.098,115.406L288.098,115.406z M288.098,19.898
			C262.68,19.898,242,40.582,242,66c0,25.43,20.68,46.107,46.098,46.107c25.42,0,46.098-20.678,46.098-46.107
			C334.195,40.582,313.518,19.898,288.098,19.898L288.098,19.898z"/>
	<path fill="#DC6658" d="M320.555,87.105h-15.869c-1.189,0-1.055-2.42,0-2.42l4.279-0.006l-19.861-18.82l20.758-19.324h-5.246
			c-1.039,0-1.119-2.426,0.012-2.426h13.848c0.902,0,1.008,2.438-0.006,2.438h-5.039l-19.352,18.082l21.32,20.063h5.15
			C321.785,84.691,321.727,87.105,320.555,87.105z"/>
	<path fill="#DC6658" d="M256.662,65.596c0,12.885,7.553,19.002,14.652,19.705c6.816,0.674,11.598-2.355,12.775-6.152l0.006-3.176
			c0-0.896,2.438-0.961,2.438,0.012L286.527,87.1c0,0.82-2.426,0.867-2.426-0.006c0,0,0.01-3.721,0.006-3.715
			c-1.043,2.086-6.041,4.816-13.016,4.26c-8.699-0.697-19.357-8.145-19.357-22.043s10.658-21.34,19.357-22.037
			c6.975-0.557,11.973,2.174,13.016,4.254c0.004,0.006-0.006-3.703-0.006-3.703c0-0.879,2.426-0.832,2.426-0.012l0.006,11.109
			c0,0.973-2.438,0.908-2.438,0.012l-0.006-3.176c-1.178-3.797-5.959-6.82-12.775-6.146
			C264.215,46.6,256.662,52.717,256.662,65.596z"/>
	<linearGradient id="SVGID_1_" gradientUnits="userSpaceOnUse" x1="200.4028" y1="22.1006" x2="200.4028" y2="88.9172">
			<stop offset="0" style="stop-color:#0B525B"/>
			<stop offset="1" style="stop-color:#008A91"/>
	</linearGradient>
	<path fill="url(#SVGID_1_)" d="M323.109,110.713c-8.004,5.607-17.715,11.25-38.029,11.25c-25.266,0-42.299-24.346-61.412-29.836
			c4.195-10.658,7.691-24.75,10.957-43.553c0.156-0.92,0.586-4.113-0.594-4.354c-1.74-0.346-6.473,0.873-7.797,1.377
			c-3.205,1.219-5.396,6.322-6.211,8.232c-2.607,6.117-7.648,16.324-10.436,19.934c-4.547,5.883-7.699,3.99-6.744-1.447
			c0.486-2.771,4.932-16.857,4.348-22.43c-0.357-3.422-4.992-2.279-8.303-1.998c-1.561,0.129-3.346,1.002-4.412,1.57
			c-1.447,0.756-8.164,6.914-15.691,12.357c-3.107-4.336-6.738-9.381-8.273-11.93c1.43-1.705,2.072-3.439,2.514-4.799
			c1.094-3.352-1.564-6.258-4.195-6.111c-2.08,0.123-3.973,1.523-5.217,2.748c-3.182,3.123-2.523,7.453-1.82,9.551
			c0.152,0.457,0.373,1.055,0.637,1.74c-3.988,3.146-9.123,6.451-14.314,9.773c-1.27-2.73-2.459-5.004-5.395-10.072
			c1.469-1.904,1.998-4.025,1.969-5.988c-0.07-3.844-1.682-5.309-4.441-5.133c-2.502,0.158-5.252,2.936-6.428,4.4
			c-1.869,2.35-1.383,6.92-0.521,9.445c0.24,0.703,0.592,1.852,1.002,3.252c-7.477,8.15-14.994,17.086-18.242,18.961
			c-1.117,0.65-1.65,0.598-1.498-1.406c0.52-7.043,7.377-19.107,8.66-24.744c0.996-4.4-6.143-5.684-8.115-2.754
			c-3.5,5.203-18.568,22.289-22.355,25.822c-2.607,2.426-3.145-0.621-2.93-3.404c0.639-8.344,8.973-20.314,13.055-21.047
			c1.883-0.34,3.764,5.25,4.443,5.496c0.451,0.164,1.178-0.721,0.865-1.354c-0.596-1.213-0.445-5.988-3.127-6.973
			c-7.26-2.666-16.338,2.59-21.105,7.57c-5.379,5.631-9.428,13.535-5.766,24.105c1.916,5.549,7.184,5.414,11.52,2.338
			c3.27-2.32,15.68-15.861,17.518-19.248c-0.877,2.936-5.453,15.393-5.957,16.986c-3.037,9.586,10.412,7.676,15.783,1.957
			c1.719-1.828,10.396-10.676,18.236-18.932c0.715,2.496,1.494,5.256,2.186,7.723c-6.762,4.699-12.094,9.258-12.832,13.289
			c-2.979,16.266,38.801,13.494,26.268-14.109c-0.604-1.324-1.102-2.449-1.547-3.434c5.074-3.404,10.154-6.844,14.109-9.914
			c1.658,4.049,3.996,9.387,5.529,12.486c-5.582,4.025-11.846,9.533-11.652,14.695c0.621,16.301,39.689,11.719,26.525-13.635
			c-0.363-0.691-1.711-2.619-3.424-5.033c7.707-6.023,12.969-10.289,13.631-10.828c0.766-0.609,1.365-0.715,0.643,2.168
			c-0.557,2.215-3.287,13.307-3.744,17.572c-1.576,14.607,11.914,12.146,16.443,8.215c4.33-3.75,8.314-11.795,11.957-18.826
			c-2.318,9.838-5.781,21.223-8.107,27.674c-6.178-0.375-12.791,0.059-19.033,1.688c-50.178,13.066-31.949,42.551,2.932,30.463
			c11.766-4.072,20.156-11.338,26.795-26.104c19.617,5.801,33.873,28.4,63.129,28.4c19.428,0,29.51-5.273,38.674-13.119
			C324.363,110.93,323.842,110.203,323.109,110.713z M139.34,76.43c5.139,17.613-14.238,17.285-10.922,5.426
			c0.52-1.857,4.557-5.08,9.949-8.865C138.818,74.596,139.17,75.85,139.34,76.43z M161.412,81.135
			c1.125-3.246,5.256-7.09,9.039-10.084c1.396,2.877,2.234,4.875,2.777,6.703C177.863,93.305,157.709,91.852,161.412,81.135z
			M184.064,118.506c-28.066,5.73-25.313-16.049,12.287-23.713c5.781-1.178,9.971-1.43,13.5-1.184
			C204.854,104.783,195.014,116.273,184.064,118.506z"/>
	<linearGradient id="SVGID_2_" gradientUnits="userSpaceOnUse" x1="65.4341" y1="22.0996" x2="65.4341" y2="88.9179">
			<stop  offset="0" style="stop-color:#0B525B"/>
			<stop  offset="1" style="stop-color:#008A91"/>
	</linearGradient>
	<path fill="url(#SVGID_2_)" d="M121.408,96.088c-12.824-7.143-26.078-5.309-31.891-4.828
			c-11.592,0.961-21.939,7.078-29.033-3.129c-10.682-15.381,2.438-40.559,7.471-45.615c1.02-1.02,2.127-2.057,3.281-3.076
			c13.615,1.395,21.785-4.336,23.096-7.652c2.498-6.299-3.057-9.17-7.908-9.428c-6.207-0.334-18.563,1.787-29.855,12.006
			c-7.932,0.041-20.822-2.771-34.113,0.387c-6.408,1.523-11.23,3.738-13.465,6.1c-0.041,0.041-0.092,0.082-0.15,0.129
			c3.602-2.215,8.412-3.961,15.791-4.969c13.322-1.822,20.027,0.363,29.391,0.826c-0.908,0.932-1.807,1.922-2.689,2.977
			c-6.938,8.309-14.146,25.734-7.787,45.258C46.914,95.396,57.236,99.756,62.1,99.955c8.914,0.369,13.318-3.164,25.514-5.156
			c3.797-0.615,16.723-4.588,33.738,2.326C122.301,97.512,122.189,96.521,121.408,96.088z M90.156,29.004
			c2.648,1.301,0.527,3.275-1.377,4.359c-4.33,2.461-8.648,4.061-14.713,3.68C80.482,31.863,87.566,27.727,90.156,29.004z"/>
	<linearGradient id="SVGID_3_" gradientUnits="userSpaceOnUse" x1="524.5039" y1="22.1001" x2="524.5039" y2="88.9175">
			<stop  offset="0" style="stop-color:#0B525B"/>
			<stop  offset="1" style="stop-color:#008A91"/>
	</linearGradient>
	<path fill="url(#SVGID_3_)" d="M658.277,65.057c-3.498,2.449-7.09,4.365-14.613,5.455c-14.719,2.121-20.953-1.172-32.508-0.891
			c-2.391-4.717-5.514-10.271-8.473-14.25c2.631-3.486,1.412-10.342-3.533-9.867c-2.174,0.217-3.984,1.623-4.869,2.584
			c-1.764,1.934-2.607,4.342-0.217,9.902c-2.455,3.24-18.855,26.438-25.787,32.361c-0.99,0.838-0.516-0.199-0.094-2.402
			c0.264-1.4,5.66-13.74,9.768-22.166c4.119-8.455,6.275-13.594,7.488-17.139c1.154-3.387-0.105-5.273-3.697-4.77
			c-4.758,0.656-8.742,2.156-14.824,6.574c-5.596,4.055-10.043,9.311-14.021,15.592c-0.85,1.342-0.885,1.324-0.674,0.24
			c0.322-1.734,0.322-6.563-0.469-9.059c-1.125-3.545-4.395-2.49-5.391-1.852c-1.816,1.184-4.406,5.742-5.338,8.244
			c0.205-2.801,1.271-14.689,2.004-17.777c0.381-1.594-1.594-1.635-1.928-1.646c-1.055-0.029-7.055,0.48-8.051,1.002
			c-0.27,0.146-0.24,0.1-0.633,0.838c-0.416,0.809-1.26,2.889-4.207,5.303c-2.889,2.35-6.891,4.377-8.209,4.998
			c-0.363-2.736-5.355-8.795-15.844-6.469c-8.713,1.934-11.355,5.443-12.762,7.793c-0.938,1.57-0.498,3.416,0.568,4.148
			c1.055,0.738,1.834,1.254,3.023,1.664c-1.271,1.939-2.355,5.695-2.824,9.668c-3.779,4.02-7.699,8.227-8.871,8.537
			c-1.143,0.311-1.547-0.305-1.723-2.045c-0.662-6.486,3.668-29.924,7.184-45.188c0.979-0.041,1.945-0.059,2.895-0.059
			c7.828-0.029,20.045-1.049,31.318,3.732c0.809,0.346,1.676-0.053,1.078-0.551c-5.959-4.904-24.896-6.422-31.922-6.65
			c-0.732-0.029-1.582-0.029-2.531,0c0.615-2.566,1.195-4.781,1.693-6.48c0.023-0.082,0.199-1.225,0.158-1.33
			c-0.152-0.352-0.697-1.699-0.914-1.91c-0.551-0.539-0.973-0.469-1.523-0.158c-1.213,0.691-8.08,5.121-10.025,6.779
			c-0.357,0.867-0.838,2.297-1.406,4.113c-5.467,0.697-11.678,1.758-17.865,3.205c-7.5,1.764-17.408,3.281-23.93,3.064
			c-9.949-0.328-13.154-2.543-19.166-5.801c-0.768-0.422-1.693,0.188-0.996,0.732c3.609,2.83,13.09,8.52,24.703,7.705
			c11.619-0.814,18.586-2.355,27.064-3.873c3.059-0.551,6.111-1.037,9.117-1.441c-1.441,4.957-3.152,11.432-4.682,17.748
			c-3.92,2.49-9.604,6.398-15.053,10.213c-1.389-3.211-2.707-6.234-3.504-8.051c1.506-1.283,2.01-1.875,2.578-2.988
			c1.4-2.742-0.732-5.883-3.117-6.047c-1.166-0.082-3.48,0.621-4.711,1.389c-2.918,1.811-3.316,5.625-2.947,7.5
			c0.129,0.65,0.439,2.197,0.844,4.236c-7.207,8.49-13.805,18.346-16.225,19.828c-0.721,0.445-1.371,0.047-0.82-3
			c0.369-2.074,5.467-20.086,5.572-20.73c0.891-5.232-7.975-5.924-10.395-2.285c-6.926,10.395-11.191,16.734-14.402,21.252
			c-4.816,6.779-6.469,6.223-4.289-1.213c1.605-5.49,6.662-17.953,6.662-19.459c0.006-1.359-0.516-1.805-1.148-1.805
			c-1.646,0-6.891,0.68-10.711,1.477c-1.752,0.357-4.646,1.166-5.326,1.318c-0.492,0.111-0.439,1.365,0.293,1.348
			c1.049-0.023,2.162,0.311,2.173,0.768c0.053,2.508-7.083,20.379-7.031,25.002c0.053,5.32,9.064,6.088,14.056,2.525
			c6.193-4.436,12.205-15.686,16.887-21.855c-1.664,5.367-6.252,16.98-5.643,20.807c0.943,5.924,8.801,4.125,14.004-0.299
			c2.555-2.18,9.416-11.438,16.963-20.525c0.439,2.203,0.914,4.658,1.371,7.043c-4.283,2.971-11.385,7.676-11.502,12.762
			c-0.293,12.223,13.389,13.096,21.381,7.482c4.67-3.27,6-8.824,4.506-13.377c-0.346-1.055-2.408-5.895-4.547-10.857
			c3.99-2.824,8.719-6.117,13.283-9.123c-1.816,7.781-3.217,14.848-3.275,17.9c-0.311,15.691,7.195,15.779,14.824,10.916
			c2.408-1.541,6.117-5.273,9.34-8.666c-0.035,2.783,0.305,5.414,1.189,7.301c1.178,2.496,8.08,3.393,10.975,2.889
			c4.049-0.703,7.822-3.92,10.705-7.266c2.168-2.525,6.908-10.91,5.719-20.977c4.225-1.945,8.379-4.658,10.441-6.205
			c-1.26,3.41-3.398,15.604-3.703,20.209c-0.34,5.209,0.574,10.922,1.055,12.316c1.482,4.301,11.795,1.699,12.586-3.475
			c0.117-0.791-0.445-7.102,0.211-10.471c1.535-3.141,5.127-11.408,6.188-12c1.166-0.65,1.436-0.398,1.436,1.406
			s-0.633,9.023-0.422,9.82c0.211,0.803,1.307,1.207,2.566,1.207c1.271,0,2.367-0.381,3.287-1.594
			c1.863-2.473,8.566-13.582,16.148-17.936c0.756-0.434,0.861-0.516,0.703,0.158c-0.322,1.389-4.16,7.734-6.48,11.941
			c-2.314,4.213-10.125,16.107-10.939,31.541c-0.211,3.926,5.648,7.688,9.721,4.283c13.078-10.916,28.225-34.471,32.104-39.41
			c1.072,2.338,2.602,6.445,3.949,10.641c-3.732,0.973-7.5,2.561-10.213,5.18c-4.518,4.377-4.957,9.58-3.691,14.748
			c3.58,14.637,36.65,9.984,29.666-12.703c-0.299-0.973-1.295-3.287-2.689-6.182c7.465-0.275,20.18,2.883,33.316-0.404
			c6.1-1.529,10.693-3.75,12.826-6.117C658.881,65.303,658.775,64.705,658.277,65.057z M439.477,80.824
			c0.521-2.098,4.893-5.578,8.924-8.455c0.832,4.418,1.482,8.156,1.482,8.959C449.859,90.82,436.928,91.025,439.477,80.824z
			M499.799,58.664c-1.189,0.662-1.904,1.559-2.66,2.432c-0.861-0.445-1.6-0.973-2.15-1.646c-0.475-0.568-0.27-1.4,0.182-2.027
			c1.154-1.57,4.67-4.611,11.947-5.285c6.838-0.633,8.947,2.906,9.387,5.168c-1.758,0.844-4.512,1.541-7.096,2.051
			c-0.387-1.594-1.945-2.889-3.422-2.695C504.516,56.859,501.609,57.68,499.799,58.664z M506.285,78.311
			c-1.113,0.41-1.4,0.445-1.6-1.195c-0.211-1.705,2.098-12.41,4.201-15.229c2.561-0.439,6.064-1.354,7.975-2.051
			C516.715,72.287,508.219,77.607,506.285,78.311z M590.736,90.146c-1.688-1.541-2.643-4.236-2.35-6.498
			c0.715-5.566,5.871-8.367,11.795-9.844c1.125,3.768,1.992,7.324,2.133,9.439C602.777,90.387,595.992,94.934,590.736,90.146z"/>
	<linearGradient id="SVGID_4_" gradientUnits="userSpaceOnUse" x1="323.4849" y1="22.1006" x2="323.4849" y2="88.9174">
			<stop  offset="0" style="stop-color:#0B525B"/>
			<stop  offset="1" style="stop-color:#008A91"/>
	</linearGradient>
	<path fill="url(#SVGID_4_)" d="M367.952,34.084c-5.08,1.406-9.598,1.424-14.162,0.316c-14.982-3.65-32.924-27.779-66.45-25.934
			c-15.168,0.838-28.568,7.945-39.191,15.756c-0.633,0.469,0.176,1.143,0.9,0.604c6.113-4.5,21.752-13.646,38.891-13.646
			c31.121,0,45.828,19.248,63.407,28.184c0.773,0.393-4.348,37.441-14.52,53.379c-0.785,1.74,1.418,1.465,2.836,1.418
			c5.414-0.152,11.174-1.729,15.24-2.918c1.248-0.369,1.816-1.406,1.969-2.455c0.193-1.365,2.355-15.832,3.762-22.389
			c2.303-0.498,6.322-0.369,8.918,0.346c6.516,1.793,4.816,8.496,3.498,14.965c-1.172,5.748-4.834,26.689-3.504,33.088
			c1.441,6.908,6.375,8.912,11.959,8.953c4.553,0.041,11.684-1.348,14.537-2.848c0.75-0.393,0.252-1.477-0.375-1.225
			c-0.738,0.293-15.463,6.633-13.359-9.662c0.434-3.363,3.316-22.125,4.096-31.055c0.674-7.711-1.266-13.676-6.369-15.387
			c-4.881-1.635-6.721-0.797-10.072-0.727c3.352-0.445,7.424-2.73,11.162-9.732c3.949-7.395,5.783-15.064,10.729-24.07
			c1.822-3.299,4.078-5.045,6.386-4.529c0.428,0.094,1.166-0.58,0.615-0.867c-3.292-1.688-6.919-0.006-9.416,3.041
			c-2.473,3.029-4.336,6.615-11.508,22.588c-4.963,11.039-13.289,12.041-16.564,12.135c0.932-5.461,3.545-19.916,7.412-26.355
			C369.059,34.588,368.59,33.902,367.952,34.084z"/>
</svg>
