<?xml version="1.0" encoding="utf-8"?>
<!-- Generator: Adobe Illustrator 14.0.0, SVG Export Plug-In . SVG Version: 6.00 Build 43363)  -->
<!DOCTYPE svg PUBLIC "-//W3C//DTD SVG 1.1//EN" "http://www.w3.org/Graphics/SVG/1.1/DTD/svg11.dtd">
<svg fill="#FFFFFF" version="1.1" id="Layer_1" xmlns="http://www.w3.org/2000/svg" xmlns:xlink="http://www.w3.org/1999/xlink" x="0px" y="0px" viewBox="0 0 792 15.5" xml:space="preserve">
	<path  d="M8.5,7.752C8.093,7.881,8.323,8.174,9.445,8.116l0.797-0.497L8.5,7.752z"/>
	<path d="M16.049,8.672c1.318-0.241,2.84-0.665,1.986-1.12c-1.306,0.478-1.623,0.278-3.029,0.847
		c-1.124,0.057-1.96-0.16-1.771-0.343c-0.396,0.127-1.744-0.108-2.348,0.203c1.46,0.384,3.311,0.399,5.244,0.083
		C16.546,8.45,16.143,8.58,16.049,8.672z"/>
	<path d="M125.741,9.446l-0.707-0.059C125.227,9.419,125.47,9.437,125.741,9.446z"/>
	<path d="M193.705,9.718c-0.518,0.012-0.733,0.062-0.76,0.106C193.426,9.792,193.82,9.762,193.705,9.718z"/>
	<path d="M205.308,10.266l-0.684-0.034C204.885,10.278,205.148,10.303,205.308,10.266z"/>
	<path d="M125.741,9.446l1.816,0.156C127.684,9.44,126.626,9.481,125.741,9.446z"/>
	<path d="M31.175,7.474c-0.38,0.023-0.696,0.07-0.986,0.13l0.927-0.053L31.175,7.474z"/>
	<polygon points="95.78,9.849 95.228,9.849 94.77,10.051 	"/>
	<path d="M72.788,9.925c0.52,0.018,0.7-0.403,0.899-0.587c-0.293,0.173-0.678,0.256-1.134,0.289
		C72.545,9.707,72.613,9.802,72.788,9.925z"/>
	<path d="M36.328,9.182l-0.647,0.059C35.85,9.223,36.133,9.206,36.328,9.182z"/>
	<path d="M112.237,9.939l0.209,0.151C112.447,10.038,112.365,9.987,112.237,9.939z"/>
	<path d="M755.347,6.771l0.002,0.075C755.482,6.803,755.523,6.774,755.347,6.771z"/>
	<polygon points="782,8.859 781.63,8.882 781.55,9.118 	"/>
	<path d="M226.545,10.805l-0.094-0.007C225.892,10.846,226.208,10.837,226.545,10.805z"/>
	<path d="M421.499,10.495c-2.208-0.376,3.594-0.484,0.269-0.902C422.078,9.757,418.746,10.25,421.499,10.495z"/>
	<path d="M31.771,7.53l0.942-0.004C32.284,7.512,31.994,7.513,31.771,7.53z"/>
	<polygon points="421.768,9.592 421.768,9.589 421.425,9.549 	"/>
	<path d="M275.477,10.552c-0.101-0.074-0.296-0.13-0.499-0.185C274.994,10.411,275.107,10.464,275.477,10.552z"/>
	<path d="M239.023,9.953l0.902,0.056C239.568,9.97,239.278,9.957,239.023,9.953z"/>
	<path d="M294.402,9.957c0.491,0.031,0.658,0.091,1.327,0.034l-0.204-0.051
		C295.284,9.997,294.961,10.023,294.402,9.957z"/>
	<polygon points="314.103,9.954 313.739,9.869 313.115,9.893 	"/>
	<path d="M695.478,6.974c0.432,0.119,0.7,0.249,0.91,0.379C696.083,7.053,698.978,6.946,695.478,6.974z"/>
	<path d="M31.185,7.711c0.115-0.107,0.283-0.16,0.585-0.182l-0.655,0.022C31.058,7.615,31.045,7.673,31.185,7.711z"
		/>
	<path d="M295.204,6.63l3.13,0.063C297.459,6.652,296.321,6.63,295.204,6.63z"/>
	<path d="M554.148,7.034l0.72-0.051C554.591,6.974,554.336,6.986,554.148,7.034z"/>
	<path d="M307.623,6.63c0.559,0.149,1.15,0.236,1.762,0.292l0.364-0.108L307.623,6.63z"/>
	<path d="M696.394,7.357l-0.006-0.004L696.394,7.357z"/>
	<path d="M717.01,6.355c-2.982-0.012-1.4,0.543-2.033,0.861c-3.56,0.157-1.647-0.409-2.859-0.691
		c-2.223,0.146-3.928,0.655-5.585,0.633c-0.123-0.091-0.445-0.124-0.067-0.238c-2.35,0.44-6.976,0.021-9.714,0.575
		c-0.203-0.049-0.306-0.095-0.357-0.138c0.443,0.278,0.512,0.56,0.421,0.76c-1.337,0.01-2.481,0.35-2.984-0.012
		c0.819,0.01,0.888-0.136,1.271-0.249l-1.4,0.157c-1.262-0.521,1.912-0.179,1.912-0.565c-2.732,0.169-5.916,0.601-8.009,0.454
		c-0.438-0.51,4.895-0.171,2.101-0.624l3.24,0.195c-2.476-0.804,1.967,0.056-0.307-0.804c-4.262-0.148-4.768,0.259-9.02,0.111
		c-0.957,0.283,0.316,0.419-0.641,0.702c-6.043,0.508-4.757-1.281-9.2-0.602c-1.15,0.339-1.596,0.984-4.759,0.643l1.078-0.576
		c-4.127-0.058-2.355,0.827-6.678,0.44c0.769-0.226,3.243-0.19,2.619-0.259c-2.8-0.454-1.98,0.327-4.133,0.327l-0.446-0.51
		c-4.394,0.081-9.232,0.448-14.099,0.542c0.27-0.152,1.104-0.312-0.035-0.467c-6.137,0.255-13.101-0.063-19.021-0.365l-2.261,0.439
		c-0.526-0.004-0.976-0.199-0.407-0.284c-2.307-0.167-0.119,0.28-1.229,0.453c-1.313,0.031-1.733-0.253-0.901-0.385
		c-4.071,0.374-11.597,0.804-15.886,0.333l0.836-0.13c-3.34-0.179-3.77,0.902-6.867,0.491l0.594-0.078
		c-7.248-0.191-15.26,0.212-20.791-0.452c-1.052,0.633-7.175-0.283-7.641,0.601c-4.139-0.438-2.954-0.596-8.783-0.891
		c-1.557-0.041-2.321,0.552-4.246,0.645l-0.047-0.463l-2.613,0.486l-1.391-0.553l-1.805,0.119c0.719,0.026,1.528,0.208,1.419,0.341
		c-2.82,0.209-6.875-0.322-6.944-0.559l-6.672,0.391c0.147-0.186,1.266-0.25,2.148-0.368c-3.562,0.472-0.646-0.487-3.911-0.055
		c0.438,0.105-0.236,0.275-0.31,0.369c-1.627-0.28-5.33-0.283-8.07-0.164l0.525-0.319c-4.948-0.081-10.433,0.154-15.986,0.148
		c1.992,0.148,1.534,0.7-0.095,0.754l-0.651-0.489c-1.052,0.302,1.701,0.185-0.458,0.554c-2.074-0.056-1.395-0.555-0.203-0.715
		l-2.522,0.17c-0.147-0.146,0.443-0.223,0.598-0.409c-1.035,0.303-4.354-0.491-5.848,0.037l-0.142-0.145
		c-5.553-0.004-8.07,0.164-12.594,0.188c-0.088,0.423-1.856,0.329-3.204,0.669c-3.323-0.135-7.013-0.466-11.018-0.43
		c-2.814,0.21-0.822,0.357-2.087,0.607c-0.208-0.384-4.207-0.347-2.133-0.624c-4.806,0.063-6.139,0.076-12.217,0.389
		c0.659,0.158,1.4,0.225,1.017,0.357c-1.104,0.063-2.51-0.161-2.352-0.346l0.291-0.04c-6.823,0.576-15.748-1.121-21.181-0.318
		l0.304-0.041l-5.635,0.417c-2.592-0.066,1.556-0.289-0.363-0.526c-6.078,0.641-9.603-0.093-14.608,0.334
		c-3.874-1.134-13.748,0.079-18.978-0.645l0.303,0.267c-1.352,0.262-1.636-0.153-2.632-0.214c0.142,0.208,1.467,0.24,0.627,0.385
		c-11.45,0.322-23.632-0.391-35.371-0.631c-4.293-0.071-2.436,1.381-7.848,0.744l1.536-0.495
		c-8.664,0.595-17.716-0.021-26.197,0.483c0.505-0.114,0.52-0.262,1.348-0.261c-1.792-0.36-6.625-0.018-6.655,0.276
		c-1.321-0.033-0.306-0.266-1.12-0.415c-1.797-0.212-4.51,0.46-5.466,0.102c-0.162-0.059,0.505-0.116,0.834-0.144
		c-1.17,0.174-5.456-0.044-4.334,0.371c-3.184-0.198-6.09,0.185-8.629-0.062c-1.656,0.464-5.449-0.224-5.975,0.434
		c0.228-0.679-5.581-0.548-7.594-0.229c0.673-0.205-1.75-0.212-0.961-0.497c-2.296,0.01-4.402,0.136-4.001,0.484
		c-4.231-0.812-8.506,0.654-10.888-0.387c-6.824,0.365-13.138,0.612-19.275,0.77c0.222-0.676,6.785-0.067,6.521-0.777
		C261.388,7,258.029,7.58,252.255,7.417c-1.495-0.093,0.849-0.294,1.354-0.409c-5.817,0.279-11.248-0.062-16.424,0.306
		c0.014-0.062,0.573-0.131,1.101-0.182c-1.021,0.022-2.373-0.1-2.257,0.208l0.994-0.083c1.629,0.447-4.051,0.933-4.233,1.167
		c1.731-0.88-5.113-0.221-2.362-1.334c-0.672,0.058-1.514,0.204-1.36,0.409c-0.996-0.059-1.313-0.179-0.302-0.413
		c-3.654,0.167-2.356,0.494-5.667,0.487c0.012-0.148,0.68-0.206,1.022-0.381c-1.676,0.29-3.36,0.581-6.158,0.455
		c0.168-0.09-0.156-0.206,0.678-0.204c-4.804,0.045-8.189,0.773-13.46,0.492c1.555-0.646-1.793-0.212-2.073-0.772l-2.834,0.167
		l1.138,0.271c-2.483-0.009-4.677,0.398-6.811,0.215l1.845-0.231l-4.653,0.107l2.633,0.212c-2.512,0.289,0.27,0.709-3.036,0.552
		c0.672-0.057-2.483-0.007-3.777-0.337l0.008-0.001c-1.229,0.179-2.492,0.366-4.328,0.227c-0.477-0.179,0.384-0.619,0.074-0.738
		c-1.212,0.468-5.815,0.13-7.35,0.628c0.512-0.117,0.538-0.411,0.37-0.471l-1.017,0.38c-1.15-0.122-1.319-0.18-1.132-0.415
		c-3.459-0.069,1.099,0.71-3.007,0.404c0.322-0.031,0.168-0.088,0.84-0.145c-4.125-0.16-7.968,0.241-11.757,0.054
		c-1.117-0.564,3.311-0.139,2.031-0.614c-5.463,0.103-11.313,0.675-16.601,0.542l0.986,0.063c-0.733,0.795-3.938-0.394-6.612-0.019
		c0.655-0.059,0.858-0.441,0.682-0.352c-3.622-0.128-7.403,0.195-12.889,0.445l0.68-0.205c-2.134-0.182-5.62-0.104-7.924-0.198
		c-0.684,0.204-2.003,0.171-1.202,0.469c-7.107-1.165-13.557,0.624-19.863-0.346c0.754-0.003,1.797-0.179,1.198-0.18l-5.372,0.189
		c0.425,0.346,0.705,0.209,1.832,0.479c-0.68,0.206-2.195,0.365-3.526,0.365c2.416-0.229-0.021-0.557-1.064-0.75
		c0.174,0.107-0.183,0.224-0.095,0.332c-2.806-0.617-0.47,0.697-4.301,0.282l0.204-0.182c-1.434,0.092-2.754,0.333-4.301,0.281
		c-0.641-0.401,1.526-0.188,1.625-0.517c-2.171,0.023-4.285,0.76-6.25,0.36c0.922-0.112,2.25-0.114,3.172-0.225
		c-2.141-0.471-2.389-0.351-3.979-0.426l0.156,0.01l-3.677-0.213L76.16,7.76c-2.717,1.046-5.534,0.192-9.194,0.876
		c3.558-0.647,0.587-0.374,0.861-0.829c-0.935-0.126-2.356-0.268-1.952-0.395c-1.729,0.367-2.888-0.29-5.33,0.247
		c-0.109-0.146-1.851-0.014-1.46-0.381c-2.249,0.114,0.532,0.254,0.343,0.438c-3.467,0.5-8.151-0.606-13.138,0.079
		c-4.301,0.282-5.096,0.775-9.087,1.021c-1.347-0.234,1.103-0.533,1.103-0.533c-2.173-0.215-3.808-0.176-5.856-0.008
		c0.415-0.127-0.012-0.236-0.637-0.4c-1.643,0.038-1.099,0.533-3.266,0.316c0.372-0.163,0.849-0.423,1.641-0.587
		c-1.937,0.134-3.849,0.408-5.854,0.54c-0.532-0.255,1.21-0.387,1.917-0.553c-2.253,0.114-5.837,0.231-6.534,0.634l1.446,0.144
		c-0.821,0.02-0.423-0.346,0.183-0.42c1.931-0.316,2.785,0.14,2.894,0.287L22.813,8.33c1.467,0.858,5.735-0.138,8.608-0.088
		l-1.197,0.624l2.947-0.517c0.627,0.162,1.056,0.511-0.363,0.604c2.06,0.308,1.824-0.221,3.595,0.122
		c0.195,0.054,0.106,0.084-0.074,0.108l2.013-0.185c-0.395,0.131,0.334,0.44-0.902,0.351c3.613,0.359,5.827-0.469,7.187,0.004
		L44.325,9.39c5.014-0.211,0.485-0.458,4.246-0.996l2.531,1.13l0.493-0.458c0.518,0.016,1.541,0.051,1.352,0.234
		c1.925-0.313-0.329-0.199,0.789-0.495c2.489,0.417,6.864-0.195,7.425,0.535c0.894-0.349-2.381-0.269,0.277-0.511
		c0.758,0.785,3.073-0.134,5.347,0.226c-0.699,0.406-2.853,0.19-0.577,0.552c1.372-0.684,4.428,0.15,6.347,0.019
		c0.09-0.545,4.172-0.227,7.391-0.409C79.74,9.4,86.001,9.516,88.996,9.714l-0.088,0.091c0.579-0.551,3.668-0.447,5.917-0.561
		c-0.088,0.331-0.493,0.46-1.711,0.608l2.114-0.003c0.499-0.176,1.158-0.27,2.53-0.333l-0.532,0.412
		c2.814-0.022,5.667-0.485,9.289-0.209c0.203-0.384-2.88-1.069,0.949-1.326c0.142,0.207,0.284,0.563-0.719,0.647
		c0.329-0.027,1.171-0.173,1.832-0.083l-1.53,0.349c1.649,0.154,0.863-0.292,2.182-0.259c-0.027,0.297,0.976,0.212,0.787,0.447
		c-0.337,0.029-1.15-0.123-1.656-0.006c1.487,0.053,3.285,0.229,3.878,0.453c-0.129-0.168,0-0.398,1.089-0.438
		c2.814-0.021,0.963,0.357,2.604,0.509c0.682-0.206,2.477,0.008,2.524-0.436c0.824,0.002,0.976,0.209,1.294,0.329
		c1.457-0.195,6.803-0.056,5.162-0.527l-0.374-0.031l0.238-0.019h-0.012h0.012c4.773-0.441,9.917,0.25,14.653,0.061l-0.008,0.149
		c2.828-0.17,6.293-0.1,8.313-0.419c0.836,0,1.974,0.27,1.617,0.447c2.161-0.111,2.403-0.278,5.525-0.034
		c-2.173,0.258,0.75,0.23-2.227,0.19c2.808,0.128,3.444,0.365,6.46-0.041c-1.027,0.379,2.113,0.478,3.449,0.365l-1.968-0.271
		c1.501-0.056,2.814-0.022,4.147,0.01l-0.721,0.5c5.748,0.606,10.365-1.034,14.74-0.018c1.52-0.349-3.122-0.246-1.763-0.653
		c2.644,0.067,5.398,0.784,6.226,0.785c3.621,0.275,3.379-0.729,7.168-0.541c-0.485-0.177-0.943-0.653,1.89-0.82
		c2.646,0.066,3.251,0.746,1.582,0.889c-0.634,0.015-0.94-0.042-0.914-0.102c-0.854,0.064-1.976,0.142-0.928,0.333l0.343-0.177
		c1.313,0.182,4.952,0.163,4.098,0.454c1.999-0.169,0.854-0.292-0.626-0.384c3.393,0.258,5.301,0.007,8.793,0.181
		c-0.555-0.098-1.066-0.307-0.514-0.305c5.123,0.22,2.255-0.337,5.727-0.416c1.972,0.272-0.707,0.647,2.788,0.42
		c2.134,0.184,0.452,0.473-0.396,0.618c3.184-0.344,5.948,0.226,7.766,0.289l-1.676,0.144c1.002-0.086,1.824-0.083,2.66-0.082
		l-0.957-0.356c0.984,0.062,1.818,0.063,1.799,0.211c1.015-0.233-0.776-0.592,1.236-0.911c1.313,0.18,3.998-0.193,4.451,0.278
		c-4.128-0.16,0.456,0.475-3.038,0.551c0.673-0.056,1.495-0.054,2.483,0.009c0.147,0.053-0.14,0.098-0.409,0.125
		c3.95,0.422,1.816-0.534,5.91-0.523c-0.52,0.265,0.949,0.505,1.617,0.448c-1.649-0.005-0.789-0.444,0.725-0.648
		c2.625,0.208,2.853-0.154,4.227-0.129l-1.569-0.098c0.532-0.266,1.845-0.231,3.675-0.315c0.156,0.208-1.662,0.142-1.009,0.234
		c2.032-0.469,4.591,0.484,7.423,0.168c1.313,0.18,0.127,0.501,1.28,0.623c3.176-0.345,3.438,0.365,6.776,0.08
		c-0.961-0.358-1.13-0.27,1.22-0.619l-5.486,0.252l3.521-0.521c-1.656-0.005-3.494,0.225-4.486,0.164
		c1.678-0.292,1.505-0.203,0.712-0.5c2.266,0.538,4.492-0.312,7.111,0.05l-0.08,0.886c3.938,0.395,6.996-0.454,12.108-0.231
		l-1.643-0.154c0.686-0.353,3.157-0.05,4.813-0.192c-0.154,0.296,0.881,0.403,1.588,0.587c-0.086-0.22,3.742,0.021,4.207-0.571
		l2.282,0.391c4.128,0.159,4.712-0.844,8.68-0.744c-1.195,0.322,0.608,0.533-2.05,0.762c1.325,0.003,2.516,0.058,2.537-0.148
		c0.774,0.186,3.675-0.398,4.893-0.117c0.559-0.13,0.742-0.441,2.229-0.416c0.162,0.06-0.006,0.146-0.006,0.146
		c0.006-0.146,2.329-0.199,1.029-0.526c4.081,0.923,11.408-0.067,14.961,0.726c2.892-0.099,6.376-0.194,9.001-0.215
		c-0.168,0.088-0.008,0.147-0.505,0.117c3.621,0.275,2.227-0.851,6.347-0.543c2.105,0.479-2.188,0.258-0.875,0.44
		c0.571,0.975,4.973-0.133,7.746,0.436l-0.672,0.057c2.12,0.331,5.172-0.369,8.635-0.299c0,0-0.168,0.085-0.021,0.146
		c2.369-0.497,6.853-0.661,10.184-0.799c-1.037,0.382-1.514,0.202-0.881,0.588c1.494-0.054-0.438-0.621,2.543-0.729
		c0.97,0.208,3.12,0.391,3.406,0.804l-2.812,0.022c1.44,0.536,3.64-0.018,5.121,0.075l-0.189,0.233
		c4.31-0.076,4.369-0.665,9.001-0.623l-0.479-0.177c2.53-0.584,2.122,0.328,4.646-0.105l0.764,0.592
		c1.67-0.143,5.85-0.573,8.845-0.684c-1.697,0.439-5.201,0.664-7.37,0.924c1.656,0.004,5.626-0.043,6.489-0.335
		c-0.667,0.057-1.507,0.202-2.167,0.111c2.032-0.466,4.704-0.694,8.003-0.684c-0.585,1.147,8.598,0.289,10.991,1.181
		c5.836-0.425,11.577,0.181,18.376,0.113c-2.412-0.894,1.984-0.025,1.567-0.943c1.583-0.059,2.188-0.043,2.329,0.017l4.798,0.547
		c1.138,0.268-1.505,0.203-1.359,0.409c3.467,0.07,1.454,0.388,3.748,0.632c-0.47-0.328,1.206-0.47,3.183-0.345l-2.784-0.422
		c4.846-0.489,4.188,0.769,9.073,0.286l-1.545,0.289c2.506-0.17,9.245,0.006,11.702-0.731c0.443,0.106,1.029,0.357-0.074,0.423
		c5.99,0.11,13.333-0.784,17.987-0.331l-0.454,0.225c1.118-0.065,1.945-0.421,3.345-0.196c-0.072,0.092-0.45,0.224,0.067,0.237
		c0.592-0.078,2.968-0.393,4.449-0.262l-1.266,0.252c5.842,0.294,8.966-0.614,13.865-0.769c-0.013,0.661,4.584,0.876,6.879,0.983
		l-0.08,0.092c6.803,0.082,11.556-0.546,17.855-0.806c3.911,0.718,13.247,0.301,19.532,0.702c-0.961-0.12,0.156-0.514,1.273-0.58
		c1.475,0.133,4.077-0.458,3.843,0.146l-0.525-0.011c1.111,0.594,4.143,0.436,6.509,0.452l0.391-0.792
		c6.19,1.152,16.221-0.424,19.6,0.608c1.493-0.198,3.344-0.196,4.825-0.394l-0.08,0.425c4.139,0.108,6.205,0.162,11.321,0.061
		l-1.043,0.304c2.886,0.027,3.644-1.226,6.306-1.25l0.801,0.633c5.035-0.009,10.131,0.547,15.105-0.028
		c-0.082,0.094-0.229,0.277-1.045,0.302c2.37,0.017,9.167,0.429,8.307-0.441c0.06,0.567,5.194,0.056,7.914-0.194l-0.423,0.418
		c2.294-0.535,2.368-0.681,5.572-0.828c0.76,0.054,0.666,0.334-0.343,0.228c2.53,0.219,1.972-0.396,5.04-0.174l-1.144,0.268
		c2.604,0.031,2.396-0.111,3.831-0.422c1.637-0.168,4.939,0.105,5.323,0.483c0.352-0.23,1.777-0.539,3.312-0.43
		c0.207,0.143-0.352,0.23-0.633,0.274c4.354,0.284,6.475-0.486,9.47-0.075c0.062,0.138,0.257,0.207,0.505,0.25
		c-3.459-0.01-6.244-0.034-5.983-0.064c0,0.386,2.794,0.453,0.571,0.985c2.242-0.29,6.077-0.921,8.801-0.74l0.36,0.133l-0.282,0.043
		c0.629,0.038,1.191,0.003,1.722-0.062c0.869,0.063,1.422,0.11,2.255,0.115c0.323,0.319,3.205,0.173,4.598,0.189
		c-0.115-0.422,1.709-0.354,0-0.703c0.222,0.031-0.263,0.051-1.189,0.068c-0.21,0.012-0.456,0.019-0.594,0.044l0.095-0.038
		c-0.914,0.012-2.107,0.022-3.463,0.028c1.101-0.214,2.251-0.394,3.791-0.16c0.715-0.271,1.502-0.549,1.945-0.68
		c1.906,0.588,5.581,0.905,6.093,1.269c4.254-0.237,10.021-0.156,12.695-0.949c1.21-0.101,1.391,0.227,1.843,0.352
		c-0.698,0.08-1.528,0.067-1.906,0.182c2.418-0.204,7.165-0.079,7.742-0.633c3.048,0.25-1.713,0.51,2.475,0.419l-0.564,0.17
		c8.238,0.884,13.395-1.413,22.528-0.278c-0.633-0.069-0.948-0.102-1.078-0.194c10.414,0.5,21.461-0.47,31.737,0.324
		c2.921,0.16,3.237-0.193,5.02-0.463l0.633,0.454l3.049-0.523c4.321-0.382,7.484,1.112,12.956,0.388l-0.706-0.306
		c1.966,0.059,6.226-0.179,5.897,0.171c0.201-0.056,0.645-0.317,1.413-0.158l0.06,0.237l4.827-0.406
		c3.742,0.172-0.586,0.941,4.876,0.987c2.029-0.092,5.78-0.69,5.018-0.849c-0.819-0.012-2.093-0.148-2.154-0.385l1.856-0.123
		c0.337-0.699,1.765-1.414-2.793-1.901l-3.176,0.427l-1.022-0.338l2.672-0.021c-1.516-0.319-2.478-0.037-3.554,0.157
		c-0.255-0.182-0.7-0.306-1.331-0.374l-3.118,0.667c-0.378-0.272,1.399-0.542-0.694-0.693c-1.46,0.31,1.401,0.613-1.017,0.816
		c-1.52-0.316-1.076-0.576-2.858-0.305c-0.251-0.18,0.127-0.294,0.834-0.374c-1.588,0.215-4.201,0.092-5.021,0.463
		c-1.584-0.392-5.359,0.102-5.203-0.56c-0.499,0.158-2.796,0.52-4.254,0.546c2.664-0.791-5.457-0.046-4.753-0.895
		c-1.972,0.712-7.121,0.316-10.613,0.711c0.195-0.056,0.579-0.17,0.888-0.135c-1.966-0.059-2.537-0.273-3.8-0.408
		c-0.253,0.587-3.313,0.722-4.963,1.084c-2.409-0.567,1.462-0.69,0.706-1.234c0.121,0.477-4.186,0.475-3.366,0.872
		c-1.843-0.352-1.588-0.17-2.537-0.658c-0.322,0.735-1.715,0.125-3.243,0.576c-2.666-0.362-0.686-0.688-3.615-0.464
		C714.405,6.616,717.01,6.355,717.01,6.355z M647.354,7.626V7.618c0.6-0.009,1.111-0.018,1.438-0.023
		C648.491,7.6,648.076,7.609,647.354,7.626z M641.499,7.633c0.713,0.017,1.601,0.02,2.539,0.017
		c0.205,0.145-0.017,0.295-0.606,0.287C643.753,7.84,642.372,7.756,641.499,7.633z M653.881,10.555
		c-0.926,0.06-1.236-0.022-1.363-0.109c0.438-0.007,0.948-0.021,1.62-0.05l0.108-0.051
		C654.158,10.424,654.058,10.499,653.881,10.555z"/>
	<path d="M655.547,10.002c0.134-0.01,0.207-0.026,0.382-0.03l-0.553-0.095l-0.328,0.132L655.547,10.002z"/>
	<polygon points="124.911,9.377 125.034,9.387 124.775,9.327 124.775,9.327 	"/>
	<polygon points="560.668,6.826 560.677,6.932 561.188,6.84 	"/>
	<path d="M92.671,7.93c-0.062-0.037-0.183-0.075-0.423-0.107C92.266,7.85,92.449,7.888,92.671,7.93z"/>
	<path d="M78.744,7.836l-1.97-0.151C77.627,7.771,78.247,7.811,78.744,7.836z"/>
	<path d="M68.037,7.626c-0.136,0.074-0.175,0.129-0.209,0.18l0.021,0.003L68.037,7.626z"/>
	<path d="M238.286,7.131l0.413-0.019C239.668,7.03,239.009,7.063,238.286,7.131z"/>
	<path d="M187.621,8.116l1.629-0.199C188.348,7.884,187.647,7.876,187.621,8.116z"/>
	<polygon points="294.86,6.623 294.854,6.63 295.204,6.63 	"/>
	<path d="M191.606,7.924c-0.902-0.083-1.656-0.066-2.356-0.007C189.989,7.945,190.86,7.988,191.606,7.924z"/>
	<polygon points="21.627,7.435 21.112,7.418 21.05,7.486 	"/>
	<path d="M21.05,7.486l-0.573,0.05C20.74,7.536,20.968,7.532,21.05,7.486z"/>
	<path d="M19.271,7.641l1.206-0.105C20.06,7.534,19.544,7.521,19.271,7.641z"/>
	<path d="M35.802,7.63l0.163-0.153L35.802,7.63z"/>
	<path d="M40.11,7.585c-1.027-0.035-2.578-0.326-4.012-0.23l-0.133,0.122C36.638,7.25,39.134,7.843,40.11,7.585z"/>
	<path d="M58.089,9.476L54.48,9.354c0.63,0.163,1.46,0.382-0.181,0.421C58.849,10.26,53.36,9.411,58.089,9.476z"/>
	<path d="M69.281,9.712c-1.939,0.076,0.022,0.236-0.08,0.328C70.432,9.893,70.729,9.854,69.281,9.712z"/>
	<path d="M150.164,9.714l-0.195,0.384C151.463,10.042,149.982,9.948,150.164,9.714z"/>
	<polygon points="165.624,7.73 164.17,7.492 163.478,7.843 	"/>
	<polygon points="174.758,10.464 174.105,10.518 176.599,10.379 	"/>
	<path d="M310.599,10.327l-0.452-0.473C309.136,9.939,308.925,10.47,310.599,10.327z"/>
	<path d="M369.242,9.846c0.639,0.236,2.288,0.388,3.305,0.156C371.228,9.97,369.914,9.786,369.242,9.846z"/>
	<polygon points="545.115,10.616 543.937,10.774 546.158,10.643 	"/>
</svg>
